<svg width="147" height="37" viewBox="0 0 147 37" fill="none" xmlns="http://www.w3.org/2000/svg">
<path d="M47.1087 3.78787C44.7177 1.26263 41.5679 0 37.6594 0C33.2552 0 29.9236 1.53821 27.6645 4.61459C27.3969 4.97906 26.8292 4.97098 26.5724 4.59879C24.4573 1.53293 21.3707 0 17.3123 0C13.6932 0 10.8157 1.1503 8.68005 3.45093C8.27496 3.8873 7.4491 3.62085 7.4491 3.02545V1.49533C7.4491 1.16394 7.18048 0.895325 6.84912 0.895325H0.599976C0.268616 0.895325 0 1.16394 0 1.4953V34.7306C0 35.062 0.268616 35.3306 0.599976 35.3306H6.84912C7.18048 35.3306 7.4491 35.062 7.4491 34.7306V16.0468C7.4491 13.1084 8.13885 10.8586 9.51831 9.29752C10.9437 7.73645 12.806 6.95593 15.1051 6.95593C17.1743 6.95593 18.7607 7.62167 19.8643 8.95316C21.0139 10.2387 21.5886 12.0753 21.5886 14.4628V34.7306C21.5886 35.062 21.8572 35.3306 22.1886 35.3306H28.4377C28.7691 35.3306 29.0377 35.062 29.0377 34.7306V16.0468C29.0377 13.0624 29.7045 10.8127 31.038 9.29752C32.3714 7.73645 34.2107 6.95593 36.5558 6.95593C38.625 6.95593 40.2574 7.62167 41.4529 8.95316C42.6484 10.2847 43.2462 12.1212 43.2462 14.4628V34.7306C43.2462 35.062 43.5148 35.3306 43.8462 35.3306H50.0953C50.4267 35.3306 50.6953 35.062 50.6953 34.7306V13.9807C50.6953 9.71075 49.4998 6.31314 47.1087 3.78787Z" fill="black"/>
<path fill-rule="evenodd" clip-rule="evenodd" d="M85.981 3.94C85.981 4.52109 85.2054 4.78592 84.8089 4.36118C82.0948 1.45374 78.462 0 73.9107 0C69.1746 0 65.1281 1.74472 61.7714 5.23416C58.4147 8.7236 56.7364 13.0165 56.7364 18.1129C56.7364 23.2094 58.4147 27.5023 61.7714 30.9917C65.1281 34.4812 69.1746 36.2259 73.9107 36.2259C78.4603 36.2259 82.0919 34.756 84.8057 31.8163C85.201 31.388 85.981 31.652 85.981 32.2348V34.7306C85.981 35.062 86.2496 35.3306 86.581 35.3306H92.8301C93.1615 35.3306 93.4301 35.062 93.4301 34.7306V1.49533C93.4301 1.16394 93.1615 0.895325 92.8301 0.895325H86.581C86.2496 0.895325 85.981 1.16394 85.981 1.49533V3.94ZM75.0833 29.1322C71.9565 29.1322 69.3585 28.0992 67.2893 26.0331C65.2201 23.8751 64.1855 21.2351 64.1855 18.1129C64.1855 14.9449 65.2201 12.3278 67.2893 10.2617C69.3585 8.14969 71.9565 7.09366 75.0833 7.09366C78.21 7.09366 80.808 8.14969 82.8772 10.2617C84.9464 12.3278 85.981 14.9449 85.981 18.1129C85.981 21.281 84.9464 23.921 82.8772 26.0331C80.808 28.0992 78.21 29.1322 75.0833 29.1322Z" fill="black"/>
<path d="M119.253 0C123.253 0 126.449 1.28558 128.84 3.85675C131.277 6.38199 132.495 9.82553 132.495 14.1873V34.7306C132.495 35.062 132.227 35.3306 131.895 35.3306H125.646C125.315 35.3306 125.046 35.062 125.046 34.7306V14.9449C125.046 12.3737 124.357 10.3994 122.977 9.02203C121.598 7.64462 119.712 6.95593 117.321 6.95593C114.608 6.95593 112.47 7.80533 110.907 9.50412C109.343 11.157 108.562 13.6134 108.562 16.8733V34.7306C108.562 35.062 108.293 35.3306 107.962 35.3306H101.713C101.381 35.3306 101.113 35.062 101.113 34.7306V1.4953C101.113 1.16394 101.381 0.895325 101.713 0.895325H107.962C108.293 0.895325 108.562 1.16394 108.562 1.49533V3.27985C108.562 3.87704 109.393 4.14331 109.797 3.70358C112.066 1.23453 115.218 0 119.253 0Z" fill="black"/>
<path d="M146.365 35.3306C146.697 35.3306 146.965 35.062 146.965 34.7306V1.49533C146.965 1.16394 146.697 0.895325 146.365 0.895325H140.116C139.785 0.895325 139.516 1.16394 139.516 1.4953V34.7306C139.516 35.062 139.785 35.3306 140.116 35.3306H146.365Z" fill="black"/>
</svg>
